<?xml version="1.0" encoding="utf-8"?>
<!-- Generator: Adobe Illustrator 19.2.1, SVG Export Plug-In . SVG Version: 6.00 Build 0)  -->
<svg version="1.1" xmlns="http://www.w3.org/2000/svg" xmlns:xlink="http://www.w3.org/1999/xlink" x="0px" y="0px"
	 viewBox="0 0 512 512" style="enable-background:new 0 0 512 512;" xml:space="preserve">
<style type="text/css">
	.st0{display:none;}
	.st1{fill:none;stroke:#333333;stroke-width:27;stroke-miterlimit:10;}
	.st2{fill:#333333;}
	.st3{display:inline;}
	.st4{display:inline;fill:#333333;}
	.st5{fill:none;stroke:#333333;stroke-width:28;stroke-miterlimit:10;}
</style>
<g id="Capa_1" class="st0">
	<path class="st1" d="M474.3,496.6H36c-11,0-20-9-20-20V38.3c0-11,9-20,20-20h438.3c11,0,20,9,20,20v438.3
		C494.3,487.6,485.3,496.6,474.3,496.6z"/>
	<rect x="106.4" y="23.3" class="st2" width="24.9" height="461.3"/>
	<rect x="23.4" y="102.3" class="st2" width="466.1" height="27"/>
	<rect x="23.4" y="194.7" class="st2" width="461.2" height="27"/>
	<rect x="23.4" y="291.2" class="st2" width="466.1" height="27"/>
	<rect x="23.4" y="377.3" class="st2" width="470.9" height="27"/>
	<g class="st3">
		<path class="st2" d="M381.5,417.6c-55,58.9-157.4,92.1-254.7,42.2C33.4,411.2-12.7,302.4,16.7,202.5
			C48.7,101.4,142.1,43.8,233,47.7c0,2.6,0,3.8,0,7.7c-1.3,67.8-2.6,134.4-3.8,203.5c0,3.8,1.3,7.7,3.8,10.2
			c48.6,48.6,96,96,144.6,144.6C377.6,413.7,378.9,415,381.5,417.6z"/>
		<path class="st2" d="M492.8,252.5c-76.8-1.3-152.3-1.3-229.1-2.6c1.3-80.6,2.6-160,3.8-241.9C389.2,14.4,496.7,120.6,492.8,252.5z
			"/>
		<path class="st2" d="M496.7,287c-10.2,51.2-30.7,94.7-67.8,131.8c-43.5-43.5-89.6-89.6-134.4-134.4
			C362.3,285.7,428.8,285.7,496.7,287z"/>
	</g>
</g>
<g id="Layer_2" class="st0">
	<g id="_x35_i3jY3.tif" class="st3">
		<g>
			<path class="st2" d="M242.7,13.9c0,41.2,0,81.2,0,122.4c-51.2,10-87.9,37.8-101.2,89s3.3,93.4,43.4,127.9
				c-20,34.5-40,70.1-61.2,105.7c-4.4-3.3-7.8-5.6-11.1-7.8C59.2,408.7,28,355.4,18,289.7c-1.1-4.4-1.1-10-2.2-14.5
				c0-12.2,0-24.5,0-36.7c1.1-7.8,2.2-15.6,3.3-24.5c16.7-99,96.8-178,195.8-195.8c7.8-1.1,15.6-2.2,23.4-3.3
				C240.5,13.9,241.6,13.9,242.7,13.9z"/>
			<path class="st2" d="M246.1,498.9c-7.8-1.1-14.5-2.2-22.2-3.3c-24.5-3.3-48.9-11.1-71.2-22.2c-1.1,0-1.1-1.1-2.2-1.1
				c12.2-20,23.4-41.2,35.6-61.2c7.8-13.3,15.6-26.7,23.4-40c2.2-3.3,3.3-3.3,6.7-2.2c72.3,27.8,152.4-20,163.5-96.8
				c2.2-20,0-40-6.7-59c0-1.1-1.1-3.3-2.2-4.4c35.6-20,70.1-40,105.7-61.2c4.4,10,7.8,18.9,12.2,28.9c6.7,18.9,11.1,38.9,12.2,59
				c0,1.1,0,1.1,1.1,2.2c0,12.2,0,24.5,0,36.7c0,1.1-1.1,2.2-1.1,2.2c-3.3,43.4-17.8,83.4-43.4,119c-40,55.6-95.7,89-163.5,100.1
				c-7.8,1.1-14.5,2.2-22.2,2.2C262.8,498.9,253.9,498.9,246.1,498.9z"/>
			<path class="st2" d="M278.3,13.9c7.8,1.1,15.6,2.2,24.5,3.3c65.6,12.2,117.9,46.7,156.8,102.3l1.1,1.1c0,0,0,0,0,1.1
				c-34.5,20-70.1,40-105.7,61.2c-10-13.3-22.2-23.4-35.6-31.1c-14.5-7.8-28.9-13.3-45.6-15.6c0-41.2,0-81.2,0-122.4
				C275,13.9,276.1,13.9,278.3,13.9z"/>
		</g>
	</g>
</g>
<g id="Layer_3" class="st0">
	<g>
		<path class="st4" d="M460.7,20.7H53c-18.3,0-33.9,15.5-33.9,33.9v407.7c0,18.3,15.5,33.9,33.9,33.9h407.7
			c18.3,0,33.9-15.5,33.9-33.9V54.6C494.5,36.2,479,20.7,460.7,20.7z M182.8,391.7L182.8,391.7c-7.1,7.1-15.5,11.3-26.8,11.3
			c-9.9,0-19.7-4.2-26.8-11.3c-7.1-7.1-11.3-15.5-11.3-26.8c0-9.9,4.2-19.7,11.3-26.8c7.1-7.1,15.5-11.3,26.8-11.3
			c9.9,0,19.7,4.2,26.8,11.3c7.1,7.1,11.3,15.5,11.3,26.8C194,376.2,189.8,386.1,182.8,391.7z M250.5,403L250.5,403
			c0-35.3-14.1-67.7-38.1-93.1c-25.4-25.4-57.8-38.1-93.1-38.1v-53.6c50.8,0,97.3,21.2,131.2,53.6c33.9,33.9,53.6,79,53.6,131.2
			H250.5z M345,403c0-125.6-101.6-227.1-225.7-227.1v-53.6c77.6,0,146.7,31,197.5,81.8s81.8,121.3,81.8,197.5H345V403z"/>
		<path class="st4" d="M130.6,391.7L130.6,391.7z"/>
		<path class="st4" d="M182.8,339.5L182.8,339.5z"/>
	</g>
	<g id="tlgKBd.tif">
		<g class="st3">
			<path class="st2" d="M472.5,120.9c0,7.6,0,13.9,0,20.3c0,30.4,0,60.8,0,91.3c0,3.8-1.3,5.1-3.8,7.6
				c-41.8,30.4-83.6,59.6-126.7,90c-3.8,2.5-6.3,2.5-8.9,0c-24.1-22.8-49.4-45.6-73.5-67.2c-1.3-1.3-2.5-1.3-3.8-2.5
				c-17.7,22.8-35.5,44.4-53.2,67.2c-1.3-1.3-3.8-1.3-5.1-2.5c-36.8-20.3-73.5-41.8-110.3-62.1c-3.8-1.3-5.1-3.8-5.1-7.6
				c0-38,0-77.3,0-115.3c0-3.8,1.3-6.3,3.8-7.6c24.1-17.7,49.4-35.5,73.5-54.5c2.5-2.5,5.1-2.5,8.9,0c25.3,15.2,52,30.4,77.3,46.9
				c3.8,2.5,7.6,2.5,11.4,2.5c26.6-5.1,53.2-8.9,79.8-13.9c3.8,0,5.1,0,7.6,2.5c17.7,16.5,35.5,31.7,52,48.2
				c2.5,2.5,5.1,2.5,7.6,1.3c20.3-12.7,40.6-25.3,60.8-36.8C467.4,123.5,469.9,123.5,472.5,120.9z"/>
			<path class="st2" d="M82.1,413.7c0-43.1,0-87.4,0-130.5c40.6,22.8,79.8,45.6,119.1,67.2c17.7-22.8,35.5-45.6,53.2-67.2
				c12.7,11.4,26.6,24.1,39.3,35.5c12.7,11.4,26.6,24.1,39.3,35.5c2.5,2.5,5.1,2.5,8.9,0c43.1-30.4,84.9-60.8,128-91.3
				c1.3-1.3,2.5-2.5,5.1-3.8c0,52,0,102.7,0,154.6C344.5,413.7,213.9,413.7,82.1,413.7z"/>
		</g>
	</g>
	<g class="st3">
		<g id="Layer_5_66_">
			<g>
				<g>
					<path class="st2" d="M499.1,468.2c0,10.1-2.5,17.7-15.2,17.7H39c-12.7,0-22.8-10.1-22.8-22.8V43.6c0-12.7,7.6-15.2,17.7-15.2
						S51.7,31,51.7,43.6v382.7c0,12.7,10.1,22.8,22.8,22.8h409.4C496.5,449.2,499.1,458.1,499.1,468.2z"/>
				</g>
			</g>
		</g>
	</g>
</g>
<g id="Layer_4">
	<g id="Layer_8">
		<g>
			<rect x="16.4" y="114.2" class="st5" width="478.1" height="312.1"/>
			<path class="st2" d="M433.9,261.4H295.1c-3.1,0-6.3,4.2-6.3,10.4c0,5.2,3.1,10.4,6.3,10.4h138.8c3.1,0,6.3-4.2,6.3-10.4
				S437.1,261.4,433.9,261.4"/>
			<path class="st2" d="M373.4,314.7h-76.2c-4.2,0-8.4,4.2-8.4,10.4c0,5.2,3.1,10.4,8.4,10.4h76.2c4.2,0,8.4-4.2,8.4-10.4
				C381.7,318.9,377.6,314.7,373.4,314.7"/>
			<path class="st2" d="M433.9,208.2H295.1c-3.1,0-6.3,4.2-6.3,10.4c0,5.2,3.1,10.4,6.3,10.4h138.8c3.1,0,6.3-4.2,6.3-10.4
				S437.1,208.2,433.9,208.2"/>
			<path class="st2" d="M71.7,198.8V346h170.2V198.8H71.7z M184.4,225.9c7.3,0,13.6,6.3,13.6,13.6c0,7.3-6.3,13.6-13.6,13.6
				c-7.3,0-13.6-6.3-13.6-13.6C170.9,232.2,177.1,225.9,184.4,225.9z M106.1,314.7c0,0,9.4-65.8,21.9-65.8
				c13.6,0,18.8,45.9,29.2,45.9c10.4,0,9.4-17.7,17.7-17.7c7.3,0,34.5,37.6,34.5,37.6H106.1z"/>
		</g>
	</g>
</g>
</svg>
